<svg width="960" height="620" viewBox="0 0 960 620" fill="none" xmlns="http://www.w3.org/2000/svg" role="img" aria-labelledby="title"><title id="title">Creator Automation Stack concept poster</title><rect width="960" height="620" fill="#030304"/><rect x="36" y="36" width="888" height="548" stroke="#F3F1EB" stroke-opacity=".1"/><rect x="82" y="84" width="240" height="390" fill="#070709" stroke="#C6C7CC" stroke-opacity=".16"/><rect x="370" y="84" width="510" height="118" stroke="#6F42D8" stroke-opacity=".24"/><rect x="370" y="254" width="218" height="220" stroke="#F3F1EB" stroke-opacity=".12"/><rect x="640" y="254" width="240" height="220" stroke="#F3F1EB" stroke-opacity=".12"/><path d="M118 136h136M118 184h164M118 232h118M118 318h154M118 366h108M118 414h180M410 136h284M410 168h178" stroke="#F3F1EB" stroke-opacity=".32"/><circle cx="480" cy="364" r="44" stroke="#6F42D8" stroke-opacity=".36"/><circle cx="760" cy="364" r="44" stroke="#7BC8D7" stroke-opacity=".24"/><path d="M524 364h192M480 408v38M760 408v38" stroke="#C6C7CC" stroke-opacity=".2"/><text x="82" y="532" fill="#C6C7CC" font-family="monospace" font-size="14" letter-spacing="5">CONCEPT SYSTEM / BOTS / INTAKE / AI WORKFLOW / CAMPAIGN TRACKING</text></svg>
