<svg width="960" height="620" viewBox="0 0 960 620" fill="none" xmlns="http://www.w3.org/2000/svg" role="img" aria-labelledby="title"><title id="title">Gaming Clan Launch concept poster</title><rect width="960" height="620" fill="#030304"/><rect x="36" y="36" width="888" height="548" stroke="#F3F1EB" stroke-opacity=".1"/><rect x="78" y="86" width="450" height="368" fill="#070709" stroke="#C6C7CC" stroke-opacity=".16"/><path d="M114 140h210M114 180h156M114 262h318M114 302h242M114 342h292" stroke="#F3F1EB" stroke-opacity=".32"/><rect x="584" y="86" width="296" height="86" stroke="#6F42D8" stroke-opacity=".24"/><rect x="584" y="204" width="138" height="118" stroke="#F3F1EB" stroke-opacity=".13"/><rect x="742" y="204" width="138" height="118" stroke="#F3F1EB" stroke-opacity=".13"/><rect x="584" y="354" width="296" height="100" stroke="#F3F1EB" stroke-opacity=".13"/><path d="M620 128h148M620 260h70M778 260h58M620 400h186" stroke="#C6C7CC" stroke-opacity=".34"/><path d="M528 410h56M584 410v-96" stroke="#7BC8D7" stroke-opacity=".22"/><text x="78" y="532" fill="#C6C7CC" font-family="monospace" font-size="14" letter-spacing="5">CONCEPT SYSTEM / RECRUITMENT SITE / DISCORD STRUCTURE / LAUNCH GRID</text></svg>
