<svg width="900" height="620" viewBox="0 0 900 620" fill="none" xmlns="http://www.w3.org/2000/svg" role="img" aria-labelledby="title">
  <title id="title">Launch presence website and campaign system</title>
  <defs>
    <radialGradient id="v" cx="0" cy="0" r="1" gradientUnits="userSpaceOnUse" gradientTransform="translate(662 160) rotate(95) scale(380 330)">
      <stop stop-color="#6F42D8" stop-opacity=".25"/>
      <stop offset="1" stop-color="#030304" stop-opacity="0"/>
    </radialGradient>
  </defs>
  <rect width="900" height="620" fill="#020203"/>
  <rect width="900" height="620" fill="url(#v)"/>
  <rect x="32" y="32" width="836" height="556" fill="#030304" stroke="#F3F1EB" stroke-opacity=".15"/>
  <rect x="78" y="82" width="486" height="350" fill="#08080C" stroke="#C6C7CC" stroke-opacity=".22"/>
  <path d="M78 130h486" stroke="#F3F1EB" stroke-opacity=".12"/>
  <circle cx="108" cy="106" r="6" fill="#C6C7CC" fill-opacity=".48"/>
  <circle cx="132" cy="106" r="6" fill="#C6C7CC" fill-opacity=".3"/>
  <circle cx="156" cy="106" r="6" fill="#6F42D8" fill-opacity=".72"/>
  <rect x="112" y="164" width="270" height="114" fill="#050506" stroke="#6F42D8" stroke-opacity=".42"/>
  <path d="M112 318h372M112 350h248M112 382h326" stroke="#F3F1EB" stroke-opacity=".46" stroke-width="2"/>
  <rect x="606" y="82" width="216" height="100" fill="#050506" stroke="#F3F1EB" stroke-opacity=".18"/>
  <rect x="606" y="214" width="216" height="100" fill="#050506" stroke="#6F42D8" stroke-opacity=".32"/>
  <rect x="606" y="346" width="216" height="86" fill="#050506" stroke="#F3F1EB" stroke-opacity=".18"/>
  <path d="M638 128h122M638 260h150M638 388h104" stroke="#C6C7CC" stroke-opacity=".5" stroke-width="2"/>
  <path d="M322 472v48M322 520h392M714 432v88" stroke="#7BC8D7" stroke-opacity=".34" stroke-width="2"/>
  <circle cx="322" cy="520" r="6" fill="#F3F1EB"/>
  <circle cx="714" cy="520" r="6" fill="#6F42D8"/>
  <text x="78" y="560" fill="#C6C7CC" fill-opacity=".76" font-family="monospace" font-size="14" letter-spacing="5">LAUNCH SURFACE / SITE / CAMPAIGN / COMMUNITY</text>
</svg>
