<svg width="960" height="640" viewBox="0 0 960 640" fill="none" xmlns="http://www.w3.org/2000/svg" role="img" aria-labelledby="title">
  <title id="title">Black Label private build dossier</title>
  <defs>
    <radialGradient id="v" cx="0" cy="0" r="1" gradientUnits="userSpaceOnUse" gradientTransform="translate(724 168) rotate(92) scale(430 360)">
      <stop stop-color="#6F42D8" stop-opacity=".34"/>
      <stop offset="1" stop-color="#020203" stop-opacity="0"/>
    </radialGradient>
    <linearGradient id="paper" x1="75" y1="62" x2="862" y2="568" gradientUnits="userSpaceOnUse">
      <stop stop-color="#0D0D12"/>
      <stop offset=".55" stop-color="#050506"/>
      <stop offset="1" stop-color="#020203"/>
    </linearGradient>
  </defs>
  <rect width="960" height="640" fill="#020203"/>
  <rect width="960" height="640" fill="url(#v)"/>
  <rect x="32" y="32" width="896" height="576" fill="#030304" stroke="#F3F1EB" stroke-opacity=".16"/>
  <rect x="64" y="66" width="832" height="508" fill="url(#paper)" stroke="#C6C7CC" stroke-opacity=".14"/>
  <path d="M96 112h274M96 142h148M96 174h214" stroke="#F3F1EB" stroke-opacity=".52" stroke-width="2"/>
  <text x="96" y="228" fill="#F3F1EB" font-family="Arial Black, Arial, sans-serif" font-size="54" font-weight="900">BLACK</text>
  <text x="96" y="280" fill="#A7A8B0" font-family="Arial Black, Arial, sans-serif" font-size="54" font-weight="900">LABEL</text>
  <path d="M96 318h258M96 348h188M96 378h222" stroke="#C6C7CC" stroke-opacity=".42" stroke-width="2"/>
  <rect x="96" y="430" width="190" height="86" fill="#040406" stroke="#F3F1EB" stroke-opacity=".18"/>
  <path d="M122 468h96M122 492h136" stroke="#7BC8D7" stroke-opacity=".34" stroke-width="2"/>
  <circle cx="328" cy="474" r="42" stroke="#F3F1EB" stroke-opacity=".32" stroke-width="2"/>
  <path d="M309 482c-10.6 0-18-8-18-21s7.4-21 18-21 18 8 18 21-7.4 21-18 21Zm39 0h-10.5l14.5-41h11l14.5 41h-10.6l-2.3-7.2h-14.3L348 482Z" fill="#F3F1EB"/>
  <rect x="430" y="96" width="378" height="132" fill="#050506" stroke="#F3F1EB" stroke-opacity=".18"/>
  <path d="M462 142h190M462 174h112M690 142h70" stroke="#F3F1EB" stroke-opacity=".5" stroke-width="2"/>
  <rect x="430" y="270" width="378" height="70" fill="#030304" stroke="#6F42D8" stroke-opacity=".34"/>
  <rect x="430" y="370" width="378" height="70" fill="#030304" stroke="#F3F1EB" stroke-opacity=".15"/>
  <rect x="430" y="470" width="378" height="70" fill="#030304" stroke="#F3F1EB" stroke-opacity=".15"/>
  <path d="M462 312h128M462 412h178M462 512h146M670 312h92M670 412h92M670 512h92" stroke="#C6C7CC" stroke-opacity=".44" stroke-width="2"/>
  <path d="M64 574h832" stroke="#F3F1EB" stroke-opacity=".16"/>
  <text x="96" y="552" fill="#C6C7CC" fill-opacity=".72" font-family="monospace" font-size="14" letter-spacing="5">CONFIDENTIAL BUILD DOSSIER / PRIVATE PRODUCTION FILE</text>
</svg>
