<svg width="180" height="180" viewBox="0 0 180 180" fill="none" xmlns="http://www.w3.org/2000/svg" role="img" aria-labelledby="title">
  <title id="title">OBSIDIUM ASCEND black label seal</title>
  <defs>
    <linearGradient id="metal" x1="50" y1="40" x2="128" y2="135" gradientUnits="userSpaceOnUse">
      <stop stop-color="#FFFFFF"/>
      <stop offset=".52" stop-color="#D2D2D8"/>
      <stop offset="1" stop-color="#8F919A"/>
    </linearGradient>
    <radialGradient id="glow" cx="0" cy="0" r="1" gradientUnits="userSpaceOnUse" gradientTransform="translate(108 66) rotate(90) scale(92)">
      <stop stop-color="#6F42D8" stop-opacity=".42"/>
      <stop offset="1" stop-color="#030304" stop-opacity="0"/>
    </radialGradient>
  </defs>
  <rect width="180" height="180" fill="#020203"/>
  <rect width="180" height="180" fill="url(#glow)"/>
  <circle cx="90" cy="90" r="78" stroke="#F3F1EB" stroke-opacity=".28"/>
  <circle cx="90" cy="90" r="64" stroke="#C6C7CC" stroke-opacity=".14"/>
  <path d="M90 29v122M29 90h122" stroke="#F3F1EB" stroke-opacity=".1"/>
  <path d="M42 43h96v94H42z" stroke="#F3F1EB" stroke-opacity=".12"/>
  <path d="M62.5 113.5c-13.6 0-22.9-9.7-22.9-26.5s9.3-26.5 22.9-26.5 22.9 9.7 22.9 26.5-9.3 26.5-22.9 26.5Zm0-11.6c5.9 0 9.7-4.9 9.7-14.9s-3.8-14.9-9.7-14.9-9.7 4.9-9.7 14.9 3.8 14.9 9.7 14.9Z" fill="url(#metal)"/>
  <path d="M102.1 112h-13l18.7-50h13.8l18.8 50h-13.2l-2.8-8.2h-19.5l-2.8 8.2Zm6.2-19.4h12.7l-6.4-18.7-6.3 18.7Z" fill="url(#metal)"/>
  <path d="M48 136h84M48 44h84" stroke="#F3F1EB" stroke-opacity=".28"/>
  <text x="90" y="28" fill="#C6C7CC" fill-opacity=".78" font-family="monospace" font-size="8" letter-spacing="3" text-anchor="middle">BLACK LABEL</text>
  <text x="90" y="154" fill="#C6C7CC" fill-opacity=".78" font-family="monospace" font-size="8" letter-spacing="3" text-anchor="middle">PRIVATE SYSTEM</text>
</svg>
