<svg width="96" height="96" viewBox="0 0 96 96" fill="none" xmlns="http://www.w3.org/2000/svg" role="img" aria-labelledby="title">
  <title id="title">OBSIDIUM ASCEND OA mark</title>
  <rect x="4" y="4" width="88" height="88" rx="2" fill="#030304"/>
  <rect x="8.5" y="8.5" width="79" height="79" rx="1.5" stroke="#C6C7CC" stroke-opacity=".42"/>
  <path d="M48 14v68" stroke="#6F42D8" stroke-opacity=".55"/>
  <path d="M29.5 63.5c-7.1 0-12-5.4-12-15.5s4.9-15.5 12-15.5S41.5 37.9 41.5 48s-4.9 15.5-12 15.5Zm0-7.1c2.7 0 4.5-2.5 4.5-8.4s-1.8-8.4-4.5-8.4S25 42.1 25 48s1.8 8.4 4.5 8.4Z" fill="#F3F1EB"/>
  <path d="M55.2 63h-7.7l11-30h7.9l11.1 30h-8l-1.7-5.2H56.9L55.2 63Zm3.6-11.3h7l-3.5-10.9-3.5 10.9Z" fill="#F3F1EB"/>
  <path d="M14 78h68" stroke="#F3F1EB" stroke-opacity=".28"/>
</svg>
