<svg width="960" height="1200" viewBox="0 0 960 1200" fill="none" xmlns="http://www.w3.org/2000/svg" role="img" aria-labelledby="title">
  <title id="title">Obsidian monolith poster</title>
  <defs>
    <radialGradient id="violet" cx="0" cy="0" r="1" gradientUnits="userSpaceOnUse" gradientTransform="translate(610 502) rotate(90) scale(420 340)">
      <stop stop-color="#6F42D8" stop-opacity=".42"/>
      <stop offset="1" stop-color="#030304" stop-opacity="0"/>
    </radialGradient>
    <linearGradient id="face" x1="405" x2="640" y1="180" y2="900">
      <stop stop-color="#0F0F14"/>
      <stop offset=".48" stop-color="#040407"/>
      <stop offset="1" stop-color="#010102"/>
    </linearGradient>
    <filter id="grain">
      <feTurbulence baseFrequency=".82" numOctaves="3" stitchTiles="stitch"/>
      <feColorMatrix type="saturate" values="0"/>
      <feComponentTransfer><feFuncA type="table" tableValues="0 .16"/></feComponentTransfer>
    </filter>
  </defs>
  <rect width="960" height="1200" fill="#030304"/>
  <rect width="960" height="1200" fill="url(#violet)"/>
  <path d="M0 0h960v1200H0z" filter="url(#grain)" opacity=".22"/>
  <path d="M194 948c123 55 472 68 604-15" stroke="#C6C7CC" stroke-opacity=".18"/>
  <path d="M248 912c126 49 376 55 527-7" stroke="#6F42D8" stroke-opacity=".48"/>
  <path d="M378 154 638 101l83 93-12 702-304 52-87-102 60-692Z" fill="#020203"/>
  <path d="M404 185 637 138l53 68-9 657-242 44-70-79 35-643Z" fill="url(#face)" stroke="#C6C7CC" stroke-opacity=".44"/>
  <path d="M637 138 690 206l-9 657-43-64V138Z" fill="#090914" stroke="#6F42D8" stroke-opacity=".32"/>
  <path d="M404 185 369 828l70 79 5-651-40-71Z" fill="#050507" stroke="#C6C7CC" stroke-opacity=".28"/>
  <path d="M445 256v585" stroke="#F3F1EB" stroke-opacity=".08"/>
  <path d="M684 206 638 138" stroke="#F3F1EB" stroke-opacity=".45"/>
  <text x="92" y="128" fill="#C6C7CC" fill-opacity=".72" font-family="monospace" font-size="22" letter-spacing="8">OBSIDIUM ASCEND</text>
  <text x="92" y="168" fill="#F3F1EB" fill-opacity=".36" font-family="monospace" font-size="13" letter-spacing="5">PRIVATE MOTION SYSTEM</text>
</svg>
