<svg width="96" height="96" viewBox="0 0 96 96" fill="none" xmlns="http://www.w3.org/2000/svg" role="img" aria-labelledby="title">
  <title id="title">OBSIDIUM ASCEND OA mark</title>
  <defs>
    <linearGradient id="platinum" x1="24" y1="16" x2="72" y2="82" gradientUnits="userSpaceOnUse">
      <stop stop-color="#FFFFFF"/>
      <stop offset=".48" stop-color="#D8D8DD"/>
      <stop offset="1" stop-color="#8D8F98"/>
    </linearGradient>
    <radialGradient id="rim" cx="0" cy="0" r="1" gradientUnits="userSpaceOnUse" gradientTransform="translate(64 30) rotate(92) scale(66)">
      <stop stop-color="#6F42D8" stop-opacity=".5"/>
      <stop offset="1" stop-color="#030304" stop-opacity="0"/>
    </radialGradient>
  </defs>
  <rect width="96" height="96" rx="2" fill="#020203"/>
  <rect width="96" height="96" rx="2" fill="url(#rim)"/>
  <path d="M10.5 10.5h75v75h-75z" stroke="#F3F1EB" stroke-opacity=".32"/>
  <path d="M18 18h60v60H18z" stroke="#C6C7CC" stroke-opacity=".13"/>
  <path d="M48 15v66" stroke="#6F42D8" stroke-opacity=".58"/>
  <path d="M30.2 65.2c-8.5 0-14.3-6.2-14.3-17.2s5.8-17.2 14.3-17.2 14.3 6.2 14.3 17.2-5.8 17.2-14.3 17.2Zm0-7.9c3.6 0 6-3.2 6-9.3s-2.4-9.3-6-9.3-6 3.2-6 9.3 2.4 9.3 6 9.3Z" fill="url(#platinum)"/>
  <path d="M53.7 64h-8.4l12.1-32h9.2l12.1 32h-8.6l-1.9-5.6H55.6L53.7 64Zm4.2-12.4h8l-4-11.8-4 11.8Z" fill="url(#platinum)"/>
  <path d="M16 78h64" stroke="#F3F1EB" stroke-opacity=".34"/>
  <path d="M78 16v18M60 16h18" stroke="#7BC8D7" stroke-opacity=".32"/>
</svg>
