<svg width="640" height="112" viewBox="0 0 640 112" fill="none" xmlns="http://www.w3.org/2000/svg" role="img" aria-labelledby="title">
  <title id="title">OBSIDIUM ASCEND wordmark</title>
  <rect width="640" height="112" fill="#030304"/>
  <rect x="1" y="1" width="638" height="110" stroke="#F3F1EB" stroke-opacity=".08"/>
  <path d="M38 74c-12.2 0-20.9-9.1-20.9-24.6S25.8 24.8 38 24.8s20.9 9.1 20.9 24.6S50.2 74 38 74Zm0-9.6c6.1 0 10.2-4.9 10.2-15s-4.1-15-10.2-15-10.2 4.9-10.2 15 4.1 15 10.2 15Z" fill="#F3F1EB"/>
  <path d="M70.5 25.8h22.1c9.4 0 15.8 5.1 15.8 13.2 0 4.9-2.4 8.8-6.5 10.8 5.1 1.9 8 5.9 8 11.5 0 8.1-6.5 11.7-15.7 11.7H70.5V25.8Zm20.4 18.8c4.1 0 6.5-1.5 6.5-5s-2.4-5-6.5-5H81v10h9.9Zm1.6 19.6c4.2 0 6.7-1.8 6.7-5.4s-2.5-5.5-6.7-5.5H81v10.9h11.5Z" fill="#F3F1EB"/>
  <path d="M137.9 74.1c-12.1 0-20-5.8-20.6-15.5h10.8c.5 4.2 4.2 6.8 10 6.8 5.2 0 8.2-1.9 8.2-5.1 0-3.7-4.1-4.6-11.1-6.2-8.2-1.9-16.5-4.5-16.5-14.4 0-8.9 7.4-14.9 18.5-14.9 11.2 0 18.6 5.6 19.2 14.8h-10.6c-.5-3.8-3.6-6.1-8.8-6.1-4.8 0-7.7 1.8-7.7 4.8 0 3.2 3.6 4.1 10.4 5.6 8.8 2 17.4 4.9 17.4 15.3 0 9.1-7.7 14.9-19.2 14.9Z" fill="#F3F1EB"/>
  <path d="M168.9 25.8h10.7V73h-10.7V25.8Z" fill="#F3F1EB"/>
  <path d="M193.5 25.8h18.2c14.5 0 24.2 9.5 24.2 23.6S226.2 73 211.7 73h-18.2V25.8Zm17.8 37.6c8.5 0 13.9-5.3 13.9-14s-5.4-14-13.9-14h-7.1v28h7.1Z" fill="#F3F1EB"/>
  <path d="M247.4 25.8h10.7V73h-10.7V25.8Z" fill="#F3F1EB"/>
  <path d="M291.4 74.1c-13.1 0-21.2-8.1-21.2-21V25.8h10.7v27.3c0 7 3.9 11.2 10.5 11.2 6.6 0 10.5-4.2 10.5-11.2V25.8h10.7v27.3c0 12.9-8.1 21-21.2 21Z" fill="#F3F1EB"/>
  <path d="M326.1 25.8h13.8l12.8 32.1 12.8-32.1h13.8V73h-10.1V41.6L356.9 73h-8.4l-12.3-31.4V73h-10.1V25.8Z" fill="#F3F1EB"/>
  <path d="M426.7 73h-11.2l17.5-47.2h11.8L462.4 73H451l-2.9-8.4h-18.6l-2.8 8.4Zm5.8-17.3h12.6l-6.3-18.5-6.3 18.5Z" fill="#C6C7CC"/>
  <path d="M487.8 74.1c-12.1 0-20-5.8-20.6-15.5H478c.5 4.2 4.2 6.8 10 6.8 5.2 0 8.2-1.9 8.2-5.1 0-3.7-4.1-4.6-11.1-6.2-8.2-1.9-16.5-4.5-16.5-14.4 0-8.9 7.4-14.9 18.5-14.9 11.2 0 18.6 5.6 19.2 14.8h-10.6c-.5-3.8-3.6-6.1-8.8-6.1-4.8 0-7.7 1.8-7.7 4.8 0 3.2 3.6 4.1 10.4 5.6 8.8 2 17.4 4.9 17.4 15.3 0 9.1-7.7 14.9-19.2 14.9Z" fill="#C6C7CC"/>
  <path d="M537.8 74.1c-14.1 0-24.1-10.1-24.1-24.7s10-24.6 24.1-24.6c11.8 0 20.5 6.7 22.7 17.2h-11.2c-1.6-4.7-5.7-7.6-11.5-7.6-8.1 0-13.4 6-13.4 15s5.3 15.1 13.4 15.1c5.9 0 10.1-3 11.7-7.8h11.2c-2.2 10.7-11 17.4-22.9 17.4Z" fill="#C6C7CC"/>
  <path d="M571.9 25.8h35.3v9.6h-24.6v9.2h21.8v8.9h-21.8v9.9h25.3V73h-36V25.8Z" fill="#C6C7CC"/>
  <path d="M619.4 25.8h10.4v30.1l-21.8-30.1h-9.9V73h10.4V42.8L630.5 73h9V25.8h-10.1Z" fill="#C6C7CC"/>
  <path d="M408 18v76" stroke="#6F42D8" stroke-opacity=".5"/>
  <path d="M18 90h604" stroke="#F3F1EB" stroke-opacity=".18"/>
</svg>
