<svg width="960" height="1200" viewBox="0 0 960 1200" fill="none" xmlns="http://www.w3.org/2000/svg" role="img" aria-labelledby="title">
  <title id="title">Obsidian monolith poster</title>
  <defs>
    <radialGradient id="violet" cx="0" cy="0" r="1" gradientUnits="userSpaceOnUse" gradientTransform="translate(650 486) rotate(90) scale(480 380)">
      <stop stop-color="#6F42D8" stop-opacity=".48"/>
      <stop offset=".46" stop-color="#201136" stop-opacity=".22"/>
      <stop offset="1" stop-color="#030304" stop-opacity="0"/>
    </radialGradient>
    <linearGradient id="face" x1="395" x2="668" y1="124" y2="948" gradientUnits="userSpaceOnUse">
      <stop stop-color="#17171F"/>
      <stop offset=".4" stop-color="#08080D"/>
      <stop offset="1" stop-color="#010102"/>
    </linearGradient>
    <linearGradient id="edge" x1="610" y1="90" x2="692" y2="946" gradientUnits="userSpaceOnUse">
      <stop stop-color="#F3F1EB" stop-opacity=".7"/>
      <stop offset=".48" stop-color="#6F42D8" stop-opacity=".35"/>
      <stop offset="1" stop-color="#C6C7CC" stop-opacity=".35"/>
    </linearGradient>
    <filter id="grain">
      <feTurbulence baseFrequency=".78" numOctaves="3" stitchTiles="stitch"/>
      <feColorMatrix type="saturate" values="0"/>
      <feComponentTransfer><feFuncA type="table" tableValues="0 .13"/></feComponentTransfer>
    </filter>
  </defs>
  <rect width="960" height="1200" fill="#020203"/>
  <rect width="960" height="1200" fill="url(#violet)"/>
  <path d="M0 0h960v1200H0z" filter="url(#grain)" opacity=".24"/>
  <path d="M126 962c176 72 582 72 730-20" stroke="#F3F1EB" stroke-opacity=".16" stroke-width="2"/>
  <path d="M224 918c144 52 398 55 568-10" stroke="#6F42D8" stroke-opacity=".52" stroke-width="3"/>
  <path d="M342 154 640 92l92 106-14 710-333 60-96-112 53-702Z" fill="#010102"/>
  <path d="M392 182 638 130l61 78-12 664-256 48-73-86 34-652Z" fill="url(#face)" stroke="#C6C7CC" stroke-opacity=".46" stroke-width="2"/>
  <path d="M638 130 699 208l-12 664-52-68 3-674Z" fill="#0A0A12" stroke="url(#edge)" stroke-opacity=".85" stroke-width="2"/>
  <path d="M392 182 358 834l73 86 6-662-45-76Z" fill="#040406" stroke="#C6C7CC" stroke-opacity=".32" stroke-width="2"/>
  <path d="M438 260v574M578 170l-13 707M664 210l-9 582" stroke="#F3F1EB" stroke-opacity=".1"/>
  <path d="M478 222 610 196M470 844l134-22" stroke="#F3F1EB" stroke-opacity=".24"/>
  <path d="M93 118h330" stroke="#F3F1EB" stroke-opacity=".2"/>
  <text x="92" y="103" fill="#F3F1EB" fill-opacity=".84" font-family="monospace" font-size="24" letter-spacing="9">OBSIDIUM ASCEND</text>
  <text x="92" y="148" fill="#C6C7CC" fill-opacity=".62" font-family="monospace" font-size="13" letter-spacing="5">BLACK-LABEL MONOLITH / PRIVATE MOTION SYSTEM</text>
  <text x="92" y="1080" fill="#C6C7CC" fill-opacity=".52" font-family="monospace" font-size="12" letter-spacing="6">01 / CINEMATIC CREATOR OPERATING SYSTEM</text>
</svg>
