<svg width="512" height="512" viewBox="0 0 512 512" fill="none" xmlns="http://www.w3.org/2000/svg">
  <defs>
    <linearGradient id="metal" x1="120" y1="82" x2="390" y2="438" gradientUnits="userSpaceOnUse">
      <stop stop-color="#FFFFFF"/>
      <stop offset=".5" stop-color="#D6D6DC"/>
      <stop offset="1" stop-color="#858892"/>
    </linearGradient>
    <radialGradient id="rim" cx="0" cy="0" r="1" gradientUnits="userSpaceOnUse" gradientTransform="translate(344 150) rotate(94) scale(350)">
      <stop stop-color="#6F42D8" stop-opacity=".5"/>
      <stop offset="1" stop-color="#030304" stop-opacity="0"/>
    </radialGradient>
  </defs>
  <rect width="512" height="512" rx="24" fill="#020203"/>
  <rect width="512" height="512" rx="24" fill="url(#rim)"/>
  <rect x="52" y="52" width="408" height="408" rx="8" stroke="#F3F1EB" stroke-opacity=".32" stroke-width="8"/>
  <rect x="92" y="92" width="328" height="328" rx="4" stroke="#C6C7CC" stroke-opacity=".14" stroke-width="5"/>
  <path d="M256 74v364" stroke="#6F42D8" stroke-opacity=".62" stroke-width="6"/>
  <path d="M156 344c-47 0-79-34-79-91s32-91 79-91 79 34 79 91-32 91-79 91Zm0-42c20 0 33-18 33-49s-13-49-33-49-33 18-33 49 13 49 33 49Z" fill="url(#metal)"/>
  <path d="M291 340h-48l69-172h51l69 172h-50l-10-30h-71l-10 30Zm22-68h47l-23-70-24 70Z" fill="url(#metal)"/>
  <path d="M80 420h352" stroke="#C6C7CC" stroke-opacity=".38" stroke-width="6"/>
  <path d="M420 80v92M328 80h92" stroke="#7BC8D7" stroke-opacity=".34" stroke-width="5"/>
</svg>
